<svg xmlns="http://www.w3.org/2000/svg" xmlns:xlink="http://www.w3.org/1999/xlink" width="500" zoomAndPan="magnify" viewBox="0 0 375 374.999991" height="500" preserveAspectRatio="xMidYMid meet" version="1.0"><defs><g/><clipPath id="73dba3f50c"><path d="M 0 0 L 373.050781 0 L 373.050781 375 L 0 375 Z M 0 0 " clip-rule="nonzero"/></clipPath><clipPath id="ae37dca0bd"><path d="M 17.25 0 L 355.800781 0 C 360.375 0 364.761719 1.816406 367.996094 5.050781 C 371.230469 8.289062 373.050781 12.675781 373.050781 17.25 L 373.050781 357.75 C 373.050781 362.324219 371.230469 366.710938 367.996094 369.949219 C 364.761719 373.183594 360.375 375 355.800781 375 L 17.25 375 C 12.675781 375 8.289062 373.183594 5.050781 369.949219 C 1.816406 366.710938 0 362.324219 0 357.75 L 0 17.25 C 0 12.675781 1.816406 8.289062 5.050781 5.050781 C 8.289062 1.816406 12.675781 0 17.25 0 Z M 17.25 0 " clip-rule="nonzero"/></clipPath></defs><g clip-path="url(#73dba3f50c)"><g clip-path="url(#ae37dca0bd)"><path fill="#061439" d="M 0 0 L 373.050781 0 L 373.050781 374.507812 L 0 374.507812 Z M 0 0 " fill-opacity="1" fill-rule="nonzero"/></g></g><g fill="#ffffff" fill-opacity="1"><g transform="translate(77.981241, 295.949984)"><g><path d="M 97.15625 0 L 16.515625 0 L 16.515625 -218.1875 L 97.046875 -218.1875 C 119.273438 -218.1875 138.429688 -213.832031 154.515625 -205.125 C 170.609375 -196.425781 183.019531 -183.925781 191.75 -167.625 C 200.488281 -151.332031 204.859375 -131.859375 204.859375 -109.203125 C 204.859375 -86.472656 200.507812 -66.9375 191.8125 -50.59375 C 183.113281 -34.257812 170.703125 -21.742188 154.578125 -13.046875 C 138.453125 -4.347656 119.3125 0 97.15625 0 Z M 69.25 -44.953125 L 95.140625 -44.953125 C 107.347656 -44.953125 117.695312 -47.03125 126.1875 -51.1875 C 134.675781 -55.34375 141.101562 -62.125 145.46875 -71.53125 C 149.84375 -80.945312 152.03125 -93.503906 152.03125 -109.203125 C 152.03125 -124.890625 149.828125 -137.40625 145.421875 -146.75 C 141.015625 -156.09375 134.53125 -162.835938 125.96875 -166.984375 C 117.414062 -171.140625 106.890625 -173.21875 94.390625 -173.21875 L 69.25 -173.21875 Z M 69.25 -44.953125 "/></g></g></g></svg>