<svg xmlns="http://www.w3.org/2000/svg" xmlns:xlink="http://www.w3.org/1999/xlink" width="1511" zoomAndPan="magnify" viewBox="0 0 1134 1723.499944" height="2297" preserveAspectRatio="xMidYMid meet" version="1.0"><defs><clipPath id="dc7ad5213f"><path d="M 0.164062 7 L 1133.835938 7 L 1133.835938 1716 L 0.164062 1716 Z M 0.164062 7 " clip-rule="nonzero"/></clipPath><clipPath id="2766e106e2"><path d="M 2 44 L 1132 44 L 1132 1722.25 L 2 1722.25 Z M 2 44 " clip-rule="nonzero"/></clipPath></defs><g clip-path="url(#dc7ad5213f)"><path fill="#ffffff" d="M 774.402344 1190.644531 C 768.160156 1122.800781 770.625 1075.492188 770.625 1013.558594 C 801.34375 997.460938 856.375 894.792969 865.574219 808.054688 C 889.722656 806.082031 927.832031 782.59375 939.003906 689.613281 C 944.917969 639.675781 921.097656 611.585938 906.476562 602.714844 C 945.738281 484.601562 1027.382812 119.097656 755.675781 81.3125 C 727.585938 32.195312 655.960938 7.390625 562.984375 7.390625 C 190.578125 14.289062 145.730469 288.625 227.375 602.714844 C 212.753906 611.585938 188.933594 639.675781 194.847656 689.613281 C 206.183594 782.59375 244.128906 806.082031 268.277344 808.054688 C 277.476562 894.792969 334.644531 997.460938 365.527344 1013.558594 C 365.527344 1075.492188 367.828125 1122.800781 361.585938 1190.644531 C 287.992188 1388.757812 -209.097656 1333.070312 -232.097656 1715.167969 L 1365.949219 1715.167969 C 1342.949219 1333.070312 847.996094 1388.757812 774.402344 1190.644531 Z M 774.402344 1190.644531 " fill-opacity="1" fill-rule="nonzero"/></g><g clip-path="url(#2766e106e2)"><path fill="#ffffff" d="M 1123.738281 1569.945312 C 1113.625 1564.800781 987.285156 1484.832031 901.953125 1430.519531 C 892.78125 1404.605469 850.273438 1330.359375 787.410156 1271.941406 L 787.410156 1094.40625 C 805.222656 1074.226562 818.34375 1057.597656 824.65625 1049.363281 C 853.703125 1011.480469 872.847656 960.285156 885.375 915.824219 C 888.25 918.515625 891.535156 920.671875 895.355469 922.039062 C 898.433594 923.136719 901.480469 923.636719 904.542969 923.636719 C 916.898438 923.636719 929.441406 915.492188 944.519531 905.699219 C 948.308594 903.234375 952.355469 900.605469 956.6875 897.90625 C 985.558594 879.941406 1008.636719 827.039062 1014.261719 786.265625 C 1017.441406 763.195312 1017.28125 731.355469 998.414062 710.6875 C 993.027344 704.789062 987.171875 700.125 980.914062 696.675781 C 998.808594 659.339844 1066.503906 497.871094 997.066406 317.417969 C 946.90625 187.058594 873.027344 131.730469 819.890625 108.273438 C 761.449219 82.480469 715.113281 88.3125 713.160156 88.578125 C 706.207031 89.507812 701.335938 95.894531 702.25 102.851562 C 703.164062 109.816406 709.5625 114.730469 716.511719 113.832031 C 716.941406 113.773438 758.84375 108.765625 810.988281 132.199219 C 880.210938 163.308594 936.332031 230.515625 973.292969 326.566406 C 1041.457031 503.722656 967.378906 666.402344 955.953125 689.648438 C 952.511719 691.902344 946.636719 695.929688 939.996094 701.226562 C 939.015625 652.535156 930.542969 603.433594 930.109375 600.9375 C 928.902344 594.007812 922.285156 589.359375 915.371094 590.582031 C 908.445312 591.789062 903.804688 598.390625 905.015625 605.320312 C 905.140625 606.035156 917.445312 677.4375 913.988281 730.707031 C 913.632812 736.222656 916.871094 741.335938 922.003906 743.375 C 923.527344 743.980469 925.121094 744.273438 926.695312 744.273438 C 930.417969 744.273438 934.046875 742.640625 936.519531 739.648438 C 944.296875 730.238281 954.628906 721.863281 962.203125 716.324219 C 968.449219 718.148438 974.179688 721.929688 979.597656 727.867188 C 989.125 738.300781 992.472656 757.800781 989.023438 782.78125 C 983.703125 821.324219 962.734375 864.140625 943.230469 876.277344 C 938.746094 879.066406 934.558594 881.785156 930.640625 884.328125 C 920.890625 890.660156 907.535156 899.328125 903.929688 898.046875 C 903.753906 897.984375 899.792969 896.398438 894.367188 880.714844 C 898.65625 862.242188 901.683594 846.492188 903.769531 835.621094 L 904.59375 831.359375 C 908.898438 809.109375 939.425781 793.101562 950.824219 788.808594 C 957.402344 786.347656 960.75 779.023438 958.296875 772.433594 C 955.847656 765.835938 948.507812 762.484375 941.917969 764.941406 C 939.699219 765.765625 887.496094 785.628906 879.582031 826.515625 L 878.75 830.820312 C 876.613281 841.960938 873.453125 858.429688 868.914062 877.675781 C 868.910156 877.703125 868.90625 877.726562 868.898438 877.75 C 857.675781 925.371094 838.015625 990.070312 804.441406 1033.863281 C 793.308594 1048.382812 781.046875 1063.320312 768.027344 1078.105469 C 765.882812 1079.425781 764.160156 1081.347656 763.105469 1083.65625 C 701.039062 1152.902344 622.679688 1217.179688 562 1217.179688 C 503.992188 1217.179688 429.824219 1158.425781 369.179688 1092.753906 C 368.765625 1092.238281 368.328125 1091.753906 367.839844 1091.308594 C 350.359375 1072.289062 334.023438 1052.726562 319.5625 1033.863281 C 285.980469 990.0625 266.320312 925.351562 255.097656 877.730469 C 255.09375 877.714844 255.089844 877.699219 255.085938 877.683594 C 250.550781 858.433594 247.386719 841.960938 245.25 830.820312 L 244.421875 826.519531 C 236.507812 785.628906 184.300781 765.765625 182.082031 764.941406 C 175.492188 762.492188 168.183594 765.839844 165.71875 772.417969 C 163.257812 779 166.597656 786.335938 173.175781 788.808594 C 184.574219 793.101562 215.101562 809.109375 219.410156 831.359375 L 220.230469 835.621094 C 222.3125 846.492188 225.34375 862.242188 229.632812 880.710938 C 224.207031 896.398438 220.246094 897.984375 220.070312 898.046875 C 216.457031 899.3125 203.113281 890.667969 193.363281 884.335938 C 189.441406 881.785156 185.253906 879.066406 180.769531 876.277344 C 161.265625 864.140625 140.292969 821.324219 134.976562 782.777344 C 131.527344 757.800781 134.875 738.300781 144.402344 727.867188 C 150.953125 720.691406 157.9375 716.617188 165.765625 715.410156 C 166.339844 715.320312 166.871094 715.144531 167.414062 714.984375 C 190.9375 718.398438 206.667969 738.355469 216.085938 750.316406 C 220.074219 755.382812 222.710938 758.730469 225.957031 760.894531 C 228.09375 762.320312 230.558594 763.035156 233.023438 763.035156 C 235.429688 763.035156 237.835938 762.351562 239.941406 760.988281 C 244.207031 758.230469 246.425781 753.203125 245.585938 748.191406 C 245.355469 746.820312 222.902344 609.503906 243.964844 466.53125 C 244.988281 459.570312 240.179688 453.09375 233.21875 452.070312 C 226.246094 451.03125 219.785156 455.855469 218.761719 462.816406 C 203.960938 563.273438 209.746094 659.066406 215.191406 711.433594 C 205.082031 702.410156 192.199219 694.109375 176.082031 690.652344 C 142.351562 639.828125 92.613281 422.5625 178.765625 269.886719 C 287.542969 77.121094 511.464844 28.261719 652.363281 103.574219 C 658.570312 106.882812 666.289062 104.550781 669.601562 98.34375 C 672.917969 92.140625 670.574219 84.421875 664.371094 81.105469 C 512.878906 0.132812 272.675781 51.628906 156.574219 257.371094 C 104.101562 350.359375 100.84375 456.429688 107.351562 529.039062 C 113.761719 600.554688 131.5 661.257812 148.65625 694.011719 C 140.273438 697.523438 132.539062 703.070312 125.585938 710.6875 C 106.71875 731.351562 106.550781 763.191406 109.734375 786.257812 C 116.152344 832.773438 141.441406 881.8125 167.308594 897.90625 C 171.644531 900.605469 175.691406 903.234375 179.480469 905.695312 C 194.558594 915.492188 207.097656 923.632812 219.453125 923.632812 C 222.515625 923.632812 225.566406 923.136719 228.640625 922.039062 C 232.460938 920.671875 235.746094 918.515625 238.621094 915.824219 C 251.152344 960.285156 270.296875 1011.480469 299.339844 1049.363281 C 306.777344 1059.0625 323.671875 1080.414062 346.558594 1105.503906 L 346.558594 1271.941406 C 283.695312 1330.355469 241.183594 1404.605469 232.011719 1430.519531 C 146.683594 1484.832031 20.335938 1564.800781 10.226562 1569.945312 C 3.96875 1572.699219 0.976562 1579.9375 3.539062 1586.335938 C 5.53125 1591.3125 10.3125 1594.34375 15.367188 1594.34375 C 16.945312 1594.34375 18.546875 1594.050781 20.097656 1593.425781 C 28.117188 1590.21875 166.605469 1502.339844 237.777344 1457.046875 C 242.90625 1465.246094 251.308594 1477.292969 264.980469 1495.667969 C 285.46875 1523.210938 312.730469 1557.875 339.773438 1590.777344 C 446.636719 1720.796875 463.269531 1721.816406 470.371094 1722.25 C 470.632812 1722.265625 470.894531 1722.273438 471.152344 1722.273438 C 476.476562 1722.273438 481.277344 1718.949219 483.117188 1713.894531 C 511.207031 1636.769531 548.515625 1557.144531 566.980469 1519.039062 C 585.449219 1557.144531 622.757812 1636.765625 650.847656 1713.894531 C 652.6875 1718.949219 657.488281 1722.273438 662.8125 1722.273438 C 663.070312 1722.273438 663.332031 1722.265625 663.597656 1722.25 C 670.703125 1721.8125 687.34375 1720.796875 794.339844 1590.597656 C 821.355469 1557.722656 848.582031 1523.097656 869.039062 1495.597656 C 882.675781 1477.261719 891.0625 1465.234375 896.1875 1457.046875 C 967.359375 1502.339844 1105.847656 1590.21875 1113.871094 1593.425781 C 1115.421875 1594.050781 1117.023438 1594.34375 1118.597656 1594.34375 C 1123.652344 1594.34375 1128.433594 1591.3125 1130.429688 1586.332031 C 1132.988281 1579.9375 1129.996094 1572.699219 1123.738281 1569.945312 Z M 562 1242.652344 C 631.191406 1242.652344 708.417969 1177.726562 761.933594 1122.0625 L 761.933594 1276.78125 C 700.421875 1361.953125 596.226562 1449.871094 566.984375 1473.828125 C 537.738281 1449.878906 433.578125 1362.003906 372.035156 1276.78125 L 372.035156 1132.265625 C 424.898438 1185.355469 497 1242.652344 562 1242.652344 Z M 464.476562 1690.882812 C 420.707031 1653.777344 272 1470.421875 256.121094 1438.242188 C 261.832031 1421.570312 299.285156 1353.714844 356.0625 1298.085938 C 420.503906 1384.71875 521.632812 1469.765625 551.011719 1493.710938 C 537.414062 1521.238281 496.484375 1605.914062 464.476562 1690.882812 Z M 669.488281 1690.882812 C 637.480469 1605.914062 596.550781 1521.238281 582.957031 1493.710938 C 612.332031 1469.765625 713.464844 1384.71875 777.902344 1298.085938 C 834.796875 1353.828125 872.28125 1421.832031 877.851562 1438.214844 C 862.046875 1470.320312 713.273438 1653.761719 669.488281 1690.882812 Z M 368.0625 342.84375 C 362.953125 338 354.894531 338.214844 350.050781 343.320312 C 346.160156 347.425781 254.9375 445.992188 270.167969 635.5625 C 270.703125 642.230469 276.277344 647.285156 282.851562 647.28125 C 283.191406 647.28125 283.539062 647.269531 283.886719 647.242188 C 290.898438 646.675781 296.125 640.535156 295.5625 633.523438 C 281.296875 455.988281 367.609375 361.84375 368.554688 360.832031 C 373.378906 355.726562 373.160156 347.679688 368.0625 342.84375 Z M 329.832031 609.117188 C 331.796875 610.210938 333.925781 610.730469 336.023438 610.730469 C 340.492188 610.730469 344.832031 608.375 347.160156 604.191406 C 402.015625 505.773438 495.085938 416.511719 496.019531 415.625 C 501.109375 410.769531 501.304688 402.707031 496.449219 397.613281 C 491.597656 392.519531 483.535156 392.328125 478.445312 397.179688 C 474.519531 400.917969 381.6875 489.921875 324.90625 591.789062 C 321.484375 597.933594 323.6875 605.691406 329.832031 609.117188 Z M 670.488281 348.1875 C 668.652344 342.46875 663.050781 338.816406 657.085938 339.414062 C 651.113281 340.015625 646.367188 344.710938 645.703125 350.683594 C 645.527344 352.296875 626.539062 504.234375 447.621094 557.675781 C 459.0625 543.855469 474.324219 526.304688 488.378906 510.726562 C 493.09375 505.503906 492.679688 497.449219 487.457031 492.738281 C 482.234375 488.023438 474.179688 488.4375 469.464844 493.660156 C 469.304688 493.839844 453.171875 511.734375 437.609375 529.984375 C 405.199219 568.007812 401.210938 575.160156 407.121094 584.640625 C 410.207031 589.589844 416.125 591.871094 422.003906 590.457031 C 539.441406 565.476562 600.863281 502.734375 631.714844 454.484375 C 645.730469 432.5625 654.851562 411.703125 660.742188 394.691406 C 689.183594 463.464844 758.796875 600.039062 866.4375 610.667969 C 866.863281 610.710938 867.289062 610.730469 867.707031 610.730469 C 874.175781 610.730469 879.71875 605.816406 880.367188 599.242188 C 881.058594 592.242188 875.941406 586.003906 868.941406 585.3125 C 744.265625 573 671.214844 350.433594 670.488281 348.1875 Z M 904.867188 549.207031 C 905.429688 555.855469 910.992188 560.878906 917.546875 560.878906 C 917.902344 560.878906 918.261719 560.867188 918.621094 560.835938 C 925.632812 560.25 930.839844 554.09375 930.253906 547.085938 C 929.625 539.496094 913.5625 360.421875 809.472656 297.96875 C 803.433594 294.34375 795.613281 296.300781 791.996094 302.335938 C 788.375 308.367188 790.332031 316.191406 796.363281 319.8125 C 889.230469 375.53125 904.722656 547.476562 904.867188 549.207031 Z M 809.203125 710.277344 C 811.695312 713.726562 815.589844 715.5625 819.542969 715.558594 C 822.128906 715.558594 824.734375 714.777344 826.988281 713.148438 C 832.695312 709.03125 833.980469 701.070312 829.859375 695.367188 C 776.613281 621.605469 666.613281 637.742188 661.949219 638.460938 C 655.003906 639.539062 650.253906 646.035156 651.324219 652.984375 C 652.390625 659.929688 658.886719 664.699219 665.839844 663.636719 C 666.839844 663.492188 765.152344 649.257812 809.203125 710.277344 Z M 547.058594 936.960938 C 548.042969 936.960938 549.042969 936.953125 550.046875 936.933594 C 557.078125 936.808594 562.679688 931.003906 562.550781 923.96875 C 562.421875 917.011719 556.746094 911.460938 549.820312 911.460938 C 549.738281 911.460938 549.660156 911.460938 549.582031 911.464844 C 500.066406 912.253906 485.703125 886.429688 484.007812 877.566406 C 486.195312 871.488281 499.152344 854.585938 507.847656 843.253906 C 519.859375 827.589844 531.207031 812.792969 535.988281 801.964844 C 567.195312 731.304688 523.097656 661.089844 521.207031 658.132812 C 517.417969 652.21875 509.5625 650.496094 503.636719 654.277344 C 497.714844 658.054688 495.972656 665.921875 499.742188 671.855469 C 500.128906 672.464844 538.289062 733.695312 512.6875 791.671875 C 509.132812 799.710938 497.710938 814.609375 487.628906 827.75 C 465.707031 856.339844 457.511719 868.148438 458.480469 878.828125 C 459.871094 894.085938 479.167969 936.960938 547.058594 936.960938 Z M 694.546875 973.558594 C 699.164062 968.265625 698.613281 960.246094 693.335938 955.613281 C 688.050781 950.984375 680.003906 951.511719 675.371094 956.785156 C 672.183594 960.402344 595.960938 1044.925781 475.328125 1002.996094 C 468.671875 1000.683594 461.421875 1004.203125 459.113281 1010.847656 C 456.808594 1017.492188 460.320312 1024.753906 466.964844 1027.0625 C 493.324219 1036.222656 517.917969 1039.925781 540.460938 1039.925781 C 635.285156 1039.925781 693.832031 974.378906 694.546875 973.558594 Z M 606.089844 1062.605469 C 568.230469 1073.5625 528.296875 1062.722656 527.777344 1062.578125 C 521 1060.660156 513.980469 1064.617188 512.078125 1071.386719 C 510.167969 1078.15625 514.109375 1085.191406 520.878906 1087.105469 C 522.136719 1087.457031 542.257812 1093.003906 568.746094 1093.003906 C 582.429688 1093.003906 597.816406 1091.519531 613.171875 1087.078125 C 619.929688 1085.121094 623.824219 1078.0625 621.867188 1071.300781 C 619.910156 1064.542969 612.859375 1060.65625 606.089844 1062.605469 Z M 724.410156 761.140625 C 742.683594 761.140625 757.546875 746.273438 757.546875 728.003906 C 757.546875 709.730469 742.683594 694.867188 724.410156 694.867188 C 706.140625 694.867188 691.273438 709.730469 691.273438 728.003906 C 691.273438 746.273438 706.136719 761.140625 724.410156 761.140625 Z M 463.261719 663.636719 C 470.175781 664.695312 476.710938 659.949219 477.789062 653 C 478.871094 646.046875 474.109375 639.539062 467.15625 638.460938 C 462.503906 637.738281 352.496094 621.605469 299.25 695.367188 C 295.132812 701.070312 296.417969 709.03125 302.121094 713.152344 C 304.375 714.777344 306.984375 715.5625 309.566406 715.558594 C 313.519531 715.558594 317.417969 713.726562 319.90625 710.277344 C 363.894531 649.347656 461.992188 663.449219 463.261719 663.636719 Z M 371.5625 728.003906 C 371.5625 746.273438 386.425781 761.140625 404.699219 761.140625 C 422.96875 761.140625 437.835938 746.273438 437.835938 728.003906 C 437.835938 709.730469 422.96875 694.867188 404.699219 694.867188 C 386.425781 694.867188 371.5625 709.730469 371.5625 728.003906 Z M 599.667969 181.507812 C 601.464844 181.507812 603.289062 181.128906 605.027344 180.320312 L 652.660156 158.164062 C 659.039062 155.199219 661.804688 147.625 658.835938 141.242188 C 655.875 134.867188 648.304688 132.097656 641.914062 135.066406 L 594.289062 157.21875 C 587.90625 160.183594 585.140625 167.761719 588.109375 174.140625 C 590.265625 178.78125 594.863281 181.507812 599.667969 181.507812 Z M 722.386719 198.5625 C 724.890625 201.902344 728.714844 203.660156 732.585938 203.660156 C 735.25 203.660156 737.933594 202.832031 740.222656 201.113281 C 745.851562 196.890625 746.992188 188.90625 742.773438 183.28125 L 709.539062 138.972656 C 705.320312 133.34375 697.328125 132.207031 691.707031 136.425781 C 686.074219 140.648438 684.933594 148.632812 689.15625 154.257812 Z M 578.0625 1385.605469 C 580.328125 1385.605469 582.621094 1385.003906 584.691406 1383.734375 C 646.710938 1345.835938 694.152344 1259.316406 696.144531 1255.652344 C 699.496094 1249.46875 697.210938 1241.734375 691.027344 1238.378906 C 684.835938 1235.019531 677.109375 1237.316406 673.75 1243.496094 C 673.296875 1244.332031 627.652344 1327.628906 571.40625 1362 C 565.40625 1365.664062 563.511719 1373.507812 567.179688 1379.511719 C 569.582031 1383.441406 573.769531 1385.605469 578.0625 1385.605469 Z M 578.0625 1385.605469 " fill-opacity="1" fill-rule="nonzero"/></g></svg>